# xmcd
# 
# Track frame offsets:
#     182
#     16710
#     30900
#     46075
#     57022
#     72817
#     87400
#     99810
#     114172
#     131377
#     145990
#     163045
# 
# Disc length: 2329
# 
# Revision: 4
# Processed by: cddbd v1.5.2PL0 Copyright (c) Steve Scherf et al.
# Submitted via: fre:ac v1.0.17
# 
DISCID=8409170c
DTITLE=Jonny Hill - Ich bin für die Liebe
DYEAR=1991
DGENRE=Country
TTITLE0=Jonny Hill - Mit 17 fängt das Leben erst an
TTITLE1=Jonny Hill - Deine Hände sind so zärtlich
TTITLE2=Jonny Hill - Leg dein Herz in meine Hände
TTITLE3=Jonny Hill - Die Frau in meinem Bett
TTITLE4=Jonny Hill - Für immer und ewig und noch eine Nacht
TTITLE5=Jonny Hill - Nur für dich will ich leben
TTITLE6=Jonny Hill - Ich bin für die Liebe
TTITLE7=Jonny Hill - Geblendet von der Nacht
TTITLE8=Jonny Hill - Ein Sturm zieht auf
TTITLE9=Jonny Hill - Wär ich jetzt nur auf einer Insel
TTITLE10=Jonny Hill - Ihre Hände können sprechen
TTITLE11=Jonny Hill - Allzeit gute Fahrt
EXTD=YEAR: 1991 ID3G: 2
EXTT0=
EXTT1=
EXTT2=
EXTT3=
EXTT4=
EXTT5=
EXTT6=
EXTT7=
EXTT8=
EXTT9=
EXTT10=
EXTT11=
PLAYORDER=
